<?xml version="1.0" encoding="UTF-8" standalone="no"?>
<svg
   xmlns:dc="http://purl.org/dc/elements/1.1/"
   xmlns:cc="http://creativecommons.org/ns#"
   xmlns:rdf="http://www.w3.org/1999/02/22-rdf-syntax-ns#"
   xmlns:svg="http://www.w3.org/2000/svg"
   xmlns="http://www.w3.org/2000/svg"
   id="svg8"
   version="1.1"
   viewBox="0 0 26.458333 26.458334"
   height="100"
   width="100">
  <defs
     id="defs2" />
  <metadata
     id="metadata5">
    <rdf:RDF>
      <cc:Work
         rdf:about="">
        <dc:format>image/svg+xml</dc:format>
        <dc:type
           rdf:resource="http://purl.org/dc/dcmitype/StillImage" />
        <dc:title></dc:title>
      </cc:Work>
    </rdf:RDF>
  </metadata>
  <g
     transform="translate(0,-270.54165)"
     id="layer1">
    <path
       id="rect3724"
       d="m 23.017449,274.05548 c -0.772947,0 -1.545259,0.29656 -2.137534,0.8889 l -8.004868,8.00325 c -0.12596,0.12611 -0.231543,0.26442 -0.330714,0.40491 l -1.366412,1.36641 -2.1375341,2.13756 -3.5652563,-3.56525 c -1.1382925,-1.1383 -2.9706146,-1.1383 -4.1089105,0 -1.13829262,1.13827 -1.13829262,2.97061 0,4.10891 l 5.696341,5.69632 c 0.00247,0.003 0.00406,0.006 0.00654,0.008 0.00247,0.003 0.00595,0.003 0.00813,0.006 l 0.075824,0.0759 c 1.1382953,1.13832 2.9706129,1.13832 4.1089109,0 0.01306,-0.0131 0.02123,-0.0281 0.03387,-0.0417 0.01562,-0.0156 0.03452,-0.0249 0.04998,-0.0404 l 4.108911,-4.11051 3.895966,-3.89439 c 0.0015,-0.001 0.0015,-0.003 0.0036,-0.006 l 4.105679,-4.10408 c 0.128471,-0.12829 0.23657,-0.26941 0.337163,-0.41301 l 1.358344,-1.35833 c 1.184551,-1.18454 1.184551,-3.09052 0,-4.27508 -0.592275,-0.59228 -1.364585,-0.88888 -2.137534,-0.88888 z"
       style="fill:#ffffff;stroke-width:0.6261996" />
  </g>
</svg>
